# xmcd
#
# Track frame offsets: 
#        150
#        11374
#        26398
#        45173
#        57761
#        75537
#        96025
#        110945
#        127771
#        151588
#        170838
#        193453
#        207457
#        227854
#        258672
#        272560
#        299908
#
# Disc length: 4408 seconds
#
# Revision: 0
# Processed by: cddbd v1.5.2PL0 Copyright (c) Steve Scherf et al.
# Submitted via: ExactAudioCopyFreeDBPlugin 1.0
#
DISCID=ec113611
DTITLE=Robbie Williams - Robbie Williams - SWING - Live at the Albert
DYEAR=2001
DGENRE=Swing
TTITLE0=Overture and Welcome to Mr. Williams
TTITLE1=Have you met Miss Jones?
TTITLE2=Mack the knife
TTITLE3=Straighten up and fly right
TTITLE4=Let's face the music and dance
TTITLE5=Well did you Evah
TTITLE6=The lady is a tramp
TTITLE7=Things
TTITLE8=One for my baby
TTITLE9=Mr. Bo Jangles
TTITLE10=I will talk and Hollywood will listen
TTITLE11=Do nothin' till you hear from me
TTITLE12=Beyond the sea
TTITLE13=Me and my shadow
TTITLE14=Ain't that a kick in the sea
TTITLE15=It was a very good year
TTITLE16=My way
EXTD=
EXTT0=
EXTT1=
EXTT2=
EXTT3=
EXTT4=
EXTT5=
EXTT6=
EXTT7=
EXTT8=
EXTT9=
EXTT10=
EXTT11=
EXTT12=
EXTT13=
EXTT14=
EXTT15=
EXTT16=
PLAYORDER=
